<svg xmlns="http://www.w3.org/2000/svg" viewBox="0 0 128 128" role="img"><defs><linearGradient id="bg" x1="0" y1="0" x2="1" y2="1"><stop stop-color="#eaf5ff"/><stop offset="1" stop-color="#f7f2df"/></linearGradient><filter id="s" x="-30%" y="-30%" width="160%" height="160%"><feDropShadow dx="0" dy="4" stdDeviation="3" flood-color="#24384b" flood-opacity=".18"/></filter></defs><rect x="4" y="4" width="120" height="120" rx="30" fill="url(#bg)"/><g filter="url(#s)"><path d="M24 69c18-2 26-14 37-27 0 12 4 18 15 22 8 3 17 2 28-1-9 14-22 22-39 22-17 0-29-5-41-16z" fill="#fff"/><path d="M56 59c-10-17-9-28-5-36 9 14 18 22 29 27" fill="#eef3f8"/><circle cx="82" cy="58" r="2.5" fill="#17324d"/><path d="m92 62 10 4-11 3" fill="#d39b39"/></g></svg>