# Project-owned low-poly Nile lotus
# Generated for Moses Nile V7.3.2
# Y-up, centered at origin; petals are separate named objects.
o PetalOuter_01
v 0.070714 0.080000 0.004629
v 0.069500 0.080000 0.010014
v 0.068285 0.080000 0.015399
v 0.067071 0.080000 0.020784
v 0.065857 0.080000 0.026169
v 0.329996 0.224148 -0.080032
v 0.316781 0.252144 -0.003226
v 0.300165 0.261476 0.072756
v 0.280147 0.252144 0.147913
v 0.256728 0.224148 0.222245
v 0.548631 0.321652 -0.092050
v 0.530315 0.368383 0.020379
v 0.505224 0.383960 0.131051
v 0.473356 0.368383 0.239966
v 0.434713 0.321652 0.347123
v 0.742081 0.370793 -0.037357
v 0.726103 0.421274 0.079511
v 0.700005 0.438101 0.193581
v 0.663787 0.421274 0.304852
v 0.617449 0.370793 0.413324
v 0.908736 0.371206 0.089581
v 0.904886 0.410452 0.177172
v 0.887603 0.423534 0.260817
v 0.856889 0.410452 0.340514
v 0.812742 0.371206 0.416265
v 1.039778 0.335000 0.310244
v 1.062933 0.353750 0.324177
v 1.069380 0.360000 0.332907
v 1.059117 0.353750 0.336436
v 1.032145 0.335000 0.334764
f 1 6 7
f 1 7 2
f 2 7 8
f 2 8 3
f 3 8 9
f 3 9 4
f 4 9 10
f 4 10 5
f 6 11 12
f 6 12 7
f 7 12 13
f 7 13 8
f 8 13 14
f 8 14 9
f 9 14 15
f 9 15 10
f 11 16 17
f 11 17 12
f 12 17 18
f 12 18 13
f 13 18 19
f 13 19 14
f 14 19 20
f 14 20 15
f 16 21 22
f 16 22 17
f 17 22 23
f 17 23 18
f 18 23 24
f 18 24 19
f 19 24 25
f 19 25 20
f 21 26 27
f 21 27 22
f 22 27 28
f 22 28 23
f 23 28 29
f 23 29 24
f 24 29 30
f 24 30 25
o PetalOuter_02
v 0.058392 0.080000 0.039049
v 0.054648 0.080000 0.043097
v 0.050904 0.080000 0.047145
v 0.047160 0.080000 0.051193
v 0.043416 0.080000 0.055240
v 0.324145 0.224148 0.113351
v 0.274106 0.252144 0.172988
v 0.222292 0.261476 0.230898
v 0.168703 0.252144 0.287080
v 0.113339 0.224148 0.341536
v 0.514624 0.321652 0.212004
v 0.440311 0.368383 0.299205
v 0.362035 0.383960 0.382862
v 0.279796 0.368383 0.462976
v 0.193594 0.321652 0.539547
v 0.661137 0.370793 0.333398
v 0.581347 0.421274 0.422856
v 0.494415 0.438101 0.506520
v 0.400342 0.421274 0.584390
v 0.299127 0.370793 0.656466
v 0.751019 0.371206 0.474609
v 0.681629 0.410452 0.539855
v 0.600313 0.423534 0.595834
v 0.507072 0.410452 0.642548
v 0.401905 0.371206 0.679995
v 0.764760 0.335000 0.638929
v 0.769016 0.353750 0.665616
v 0.763040 0.360000 0.675633
v 0.746831 0.353750 0.668980
v 0.720390 0.335000 0.645658
f 31 36 37
f 31 37 32
f 32 37 38
f 32 38 33
f 33 38 39
f 33 39 34
f 34 39 40
f 34 40 35
f 36 41 42
f 36 42 37
f 37 42 43
f 37 43 38
f 38 43 44
f 38 44 39
f 39 44 45
f 39 45 40
f 41 46 47
f 41 47 42
f 42 47 48
f 42 48 43
f 43 48 49
f 43 49 44
f 44 49 50
f 44 50 45
f 46 51 52
f 46 52 47
f 47 52 53
f 47 53 48
f 48 53 54
f 48 54 49
f 49 54 55
f 49 55 50
f 51 56 57
f 51 57 52
f 52 57 58
f 52 58 53
f 53 58 59
f 53 59 54
f 54 59 60
f 54 60 55
o PetalOuter_03
v 0.030665 0.080000 0.063033
v 0.025235 0.080000 0.063582
v 0.019805 0.080000 0.064132
v 0.014375 0.080000 0.064681
v 0.008945 0.080000 0.065231
v 0.218825 0.224148 0.263691
v 0.145673 0.252144 0.285898
v 0.071940 0.261476 0.305582
v -0.002373 0.252144 0.322744
v -0.077268 0.224148 0.337383
v 0.303201 0.321652 0.513818
v 0.193498 0.368383 0.546626
v 0.080927 0.383960 0.573684
v -0.034510 0.368383 0.594993
v -0.152814 0.321652 0.610553
v 0.358087 0.370793 0.711667
v 0.244694 0.421274 0.747006
v 0.125382 0.438101 0.773483
v 0.000150 0.421274 0.791097
v -0.130001 0.370793 0.799849
v 0.374376 0.371206 0.871348
v 0.291637 0.410452 0.901574
v 0.201886 0.423534 0.921002
v 0.105124 0.410452 0.929631
v 0.001350 0.371206 0.927463
v 0.336691 0.335000 1.000827
v 0.319682 0.353750 1.021891
v 0.302673 0.360000 1.022961
v 0.285665 0.353750 1.004038
v 0.268656 0.335000 0.965121
f 61 66 67
f 61 67 62
f 62 67 68
f 62 68 63
f 63 68 69
f 63 69 64
f 64 69 70
f 64 70 65
f 66 71 72
f 66 72 67
f 67 72 73
f 67 73 68
f 68 73 74
f 68 74 69
f 69 74 75
f 69 75 70
f 71 76 77
f 71 77 72
f 72 77 78
f 72 78 73
f 73 78 79
f 73 79 74
f 74 79 80
f 74 80 75
f 76 81 82
f 76 82 77
f 77 82 83
f 77 83 78
f 78 83 84
f 78 84 79
f 79 84 85
f 79 85 80
f 81 86 87
f 81 87 82
f 82 87 88
f 82 88 83
f 83 88 89
f 83 89 84
f 84 89 90
f 84 90 85
o PetalOuter_04
v -0.004629 0.080000 0.070714
v -0.010014 0.080000 0.069500
v -0.015399 0.080000 0.068285
v -0.020784 0.080000 0.067071
v -0.026169 0.080000 0.065857
v 0.080032 0.224148 0.329996
v 0.003226 0.252144 0.316781
v -0.072756 0.261476 0.300165
v -0.147913 0.252144 0.280147
v -0.222245 0.224148 0.256728
v 0.092050 0.321652 0.548631
v -0.020379 0.368383 0.530315
v -0.131051 0.383960 0.505224
v -0.239966 0.368383 0.473356
v -0.347123 0.321652 0.434713
v 0.037357 0.370793 0.742081
v -0.079511 0.421274 0.726103
v -0.193581 0.438101 0.700005
v -0.304852 0.421274 0.663787
v -0.413324 0.370793 0.617449
v -0.089581 0.371206 0.908736
v -0.177172 0.410452 0.904886
v -0.260817 0.423534 0.887603
v -0.340514 0.410452 0.856889
v -0.416265 0.371206 0.812742
v -0.310244 0.335000 1.039778
v -0.324177 0.353750 1.062933
v -0.332907 0.360000 1.069380
v -0.336436 0.353750 1.059117
v -0.334764 0.335000 1.032145
f 91 96 97
f 91 97 92
f 92 97 98
f 92 98 93
f 93 98 99
f 93 99 94
f 94 99 100
f 94 100 95
f 96 101 102
f 96 102 97
f 97 102 103
f 97 103 98
f 98 103 104
f 98 104 99
f 99 104 105
f 99 105 100
f 101 106 107
f 101 107 102
f 102 107 108
f 102 108 103
f 103 108 109
f 103 109 104
f 104 109 110
f 104 110 105
f 106 111 112
f 106 112 107
f 107 112 113
f 107 113 108
f 108 113 114
f 108 114 109
f 109 114 115
f 109 115 110
f 111 116 117
f 111 117 112
f 112 117 118
f 112 118 113
f 113 118 119
f 113 119 114
f 114 119 120
f 114 120 115
o PetalOuter_05
v -0.039049 0.080000 0.058392
v -0.043097 0.080000 0.054648
v -0.047145 0.080000 0.050904
v -0.051193 0.080000 0.047160
v -0.055240 0.080000 0.043416
v -0.113351 0.224148 0.324145
v -0.172988 0.252144 0.274106
v -0.230898 0.261476 0.222292
v -0.287080 0.252144 0.168703
v -0.341536 0.224148 0.113339
v -0.212004 0.321652 0.514624
v -0.299205 0.368383 0.440311
v -0.382862 0.383960 0.362035
v -0.462976 0.368383 0.279796
v -0.539547 0.321652 0.193594
v -0.333398 0.370793 0.661137
v -0.422856 0.421274 0.581347
v -0.506520 0.438101 0.494415
v -0.584390 0.421274 0.400342
v -0.656466 0.370793 0.299127
v -0.474609 0.371206 0.751019
v -0.539855 0.410452 0.681629
v -0.595834 0.423534 0.600313
v -0.642548 0.410452 0.507072
v -0.679995 0.371206 0.401905
v -0.638929 0.335000 0.764760
v -0.665616 0.353750 0.769016
v -0.675633 0.360000 0.763040
v -0.668980 0.353750 0.746831
v -0.645658 0.335000 0.720390
f 121 126 127
f 121 127 122
f 122 127 128
f 122 128 123
f 123 128 129
f 123 129 124
f 124 129 130
f 124 130 125
f 126 131 132
f 126 132 127
f 127 132 133
f 127 133 128
f 128 133 134
f 128 134 129
f 129 134 135
f 129 135 130
f 131 136 137
f 131 137 132
f 132 137 138
f 132 138 133
f 133 138 139
f 133 139 134
f 134 139 140
f 134 140 135
f 136 141 142
f 136 142 137
f 137 142 143
f 137 143 138
f 138 143 144
f 138 144 139
f 139 144 145
f 139 145 140
f 141 146 147
f 141 147 142
f 142 147 148
f 142 148 143
f 143 148 149
f 143 149 144
f 144 149 150
f 144 150 145
o PetalOuter_06
v -0.063033 0.080000 0.030665
v -0.063582 0.080000 0.025235
v -0.064132 0.080000 0.019805
v -0.064681 0.080000 0.014375
v -0.065231 0.080000 0.008945
v -0.263691 0.224148 0.218825
v -0.285898 0.252144 0.145673
v -0.305582 0.261476 0.071940
v -0.322744 0.252144 -0.002373
v -0.337383 0.224148 -0.077268
v -0.513818 0.321652 0.303201
v -0.546626 0.368383 0.193498
v -0.573684 0.383960 0.080927
v -0.594993 0.368383 -0.034510
v -0.610553 0.321652 -0.152814
v -0.711667 0.370793 0.358087
v -0.747006 0.421274 0.244694
v -0.773483 0.438101 0.125382
v -0.791097 0.421274 0.000150
v -0.799849 0.370793 -0.130001
v -0.871348 0.371206 0.374376
v -0.901574 0.410452 0.291637
v -0.921002 0.423534 0.201886
v -0.929631 0.410452 0.105124
v -0.927463 0.371206 0.001350
v -1.000827 0.335000 0.336691
v -1.021891 0.353750 0.319682
v -1.022961 0.360000 0.302673
v -1.004038 0.353750 0.285665
v -0.965121 0.335000 0.268656
f 151 156 157
f 151 157 152
f 152 157 158
f 152 158 153
f 153 158 159
f 153 159 154
f 154 159 160
f 154 160 155
f 156 161 162
f 156 162 157
f 157 162 163
f 157 163 158
f 158 163 164
f 158 164 159
f 159 164 165
f 159 165 160
f 161 166 167
f 161 167 162
f 162 167 168
f 162 168 163
f 163 168 169
f 163 169 164
f 164 169 170
f 164 170 165
f 166 171 172
f 166 172 167
f 167 172 173
f 167 173 168
f 168 173 174
f 168 174 169
f 169 174 175
f 169 175 170
f 171 176 177
f 171 177 172
f 172 177 178
f 172 178 173
f 173 178 179
f 173 179 174
f 174 179 180
f 174 180 175
o PetalOuter_07
v -0.070714 0.080000 -0.004629
v -0.069500 0.080000 -0.010014
v -0.068285 0.080000 -0.015399
v -0.067071 0.080000 -0.020784
v -0.065857 0.080000 -0.026169
v -0.329996 0.224148 0.080032
v -0.316781 0.252144 0.003226
v -0.300165 0.261476 -0.072756
v -0.280147 0.252144 -0.147913
v -0.256728 0.224148 -0.222245
v -0.548631 0.321652 0.092050
v -0.530315 0.368383 -0.020379
v -0.505224 0.383960 -0.131051
v -0.473356 0.368383 -0.239966
v -0.434713 0.321652 -0.347123
v -0.742081 0.370793 0.037357
v -0.726103 0.421274 -0.079511
v -0.700005 0.438101 -0.193581
v -0.663787 0.421274 -0.304852
v -0.617449 0.370793 -0.413324
v -0.908736 0.371206 -0.089581
v -0.904886 0.410452 -0.177172
v -0.887603 0.423534 -0.260817
v -0.856889 0.410452 -0.340514
v -0.812742 0.371206 -0.416265
v -1.039778 0.335000 -0.310244
v -1.062933 0.353750 -0.324177
v -1.069380 0.360000 -0.332907
v -1.059117 0.353750 -0.336436
v -1.032145 0.335000 -0.334764
f 181 186 187
f 181 187 182
f 182 187 188
f 182 188 183
f 183 188 189
f 183 189 184
f 184 189 190
f 184 190 185
f 186 191 192
f 186 192 187
f 187 192 193
f 187 193 188
f 188 193 194
f 188 194 189
f 189 194 195
f 189 195 190
f 191 196 197
f 191 197 192
f 192 197 198
f 192 198 193
f 193 198 199
f 193 199 194
f 194 199 200
f 194 200 195
f 196 201 202
f 196 202 197
f 197 202 203
f 197 203 198
f 198 203 204
f 198 204 199
f 199 204 205
f 199 205 200
f 201 206 207
f 201 207 202
f 202 207 208
f 202 208 203
f 203 208 209
f 203 209 204
f 204 209 210
f 204 210 205
o PetalOuter_08
v -0.058392 0.080000 -0.039049
v -0.054648 0.080000 -0.043097
v -0.050904 0.080000 -0.047145
v -0.047160 0.080000 -0.051193
v -0.043416 0.080000 -0.055240
v -0.324145 0.224148 -0.113351
v -0.274106 0.252144 -0.172988
v -0.222292 0.261476 -0.230898
v -0.168703 0.252144 -0.287080
v -0.113339 0.224148 -0.341536
v -0.514624 0.321652 -0.212004
v -0.440311 0.368383 -0.299205
v -0.362035 0.383960 -0.382862
v -0.279796 0.368383 -0.462976
v -0.193594 0.321652 -0.539547
v -0.661137 0.370793 -0.333398
v -0.581347 0.421274 -0.422856
v -0.494415 0.438101 -0.506520
v -0.400342 0.421274 -0.584390
v -0.299127 0.370793 -0.656466
v -0.751019 0.371206 -0.474609
v -0.681629 0.410452 -0.539855
v -0.600313 0.423534 -0.595834
v -0.507072 0.410452 -0.642548
v -0.401905 0.371206 -0.679995
v -0.764760 0.335000 -0.638929
v -0.769016 0.353750 -0.665616
v -0.763040 0.360000 -0.675633
v -0.746831 0.353750 -0.668980
v -0.720390 0.335000 -0.645658
f 211 216 217
f 211 217 212
f 212 217 218
f 212 218 213
f 213 218 219
f 213 219 214
f 214 219 220
f 214 220 215
f 216 221 222
f 216 222 217
f 217 222 223
f 217 223 218
f 218 223 224
f 218 224 219
f 219 224 225
f 219 225 220
f 221 226 227
f 221 227 222
f 222 227 228
f 222 228 223
f 223 228 229
f 223 229 224
f 224 229 230
f 224 230 225
f 226 231 232
f 226 232 227
f 227 232 233
f 227 233 228
f 228 233 234
f 228 234 229
f 229 234 235
f 229 235 230
f 231 236 237
f 231 237 232
f 232 237 238
f 232 238 233
f 233 238 239
f 233 239 234
f 234 239 240
f 234 240 235
o PetalOuter_09
v -0.030665 0.080000 -0.063033
v -0.025235 0.080000 -0.063582
v -0.019805 0.080000 -0.064132
v -0.014375 0.080000 -0.064681
v -0.008945 0.080000 -0.065231
v -0.218825 0.224148 -0.263691
v -0.145673 0.252144 -0.285898
v -0.071940 0.261476 -0.305582
v 0.002373 0.252144 -0.322744
v 0.077268 0.224148 -0.337383
v -0.303201 0.321652 -0.513818
v -0.193498 0.368383 -0.546626
v -0.080927 0.383960 -0.573684
v 0.034510 0.368383 -0.594993
v 0.152814 0.321652 -0.610553
v -0.358087 0.370793 -0.711667
v -0.244694 0.421274 -0.747006
v -0.125382 0.438101 -0.773483
v -0.000150 0.421274 -0.791097
v 0.130001 0.370793 -0.799849
v -0.374376 0.371206 -0.871348
v -0.291637 0.410452 -0.901574
v -0.201886 0.423534 -0.921002
v -0.105124 0.410452 -0.929631
v -0.001350 0.371206 -0.927463
v -0.336691 0.335000 -1.000827
v -0.319682 0.353750 -1.021891
v -0.302673 0.360000 -1.022961
v -0.285665 0.353750 -1.004038
v -0.268656 0.335000 -0.965121
f 241 246 247
f 241 247 242
f 242 247 248
f 242 248 243
f 243 248 249
f 243 249 244
f 244 249 250
f 244 250 245
f 246 251 252
f 246 252 247
f 247 252 253
f 247 253 248
f 248 253 254
f 248 254 249
f 249 254 255
f 249 255 250
f 251 256 257
f 251 257 252
f 252 257 258
f 252 258 253
f 253 258 259
f 253 259 254
f 254 259 260
f 254 260 255
f 256 261 262
f 256 262 257
f 257 262 263
f 257 263 258
f 258 263 264
f 258 264 259
f 259 264 265
f 259 265 260
f 261 266 267
f 261 267 262
f 262 267 268
f 262 268 263
f 263 268 269
f 263 269 264
f 264 269 270
f 264 270 265
o PetalOuter_10
v 0.004629 0.080000 -0.070714
v 0.010014 0.080000 -0.069500
v 0.015399 0.080000 -0.068285
v 0.020784 0.080000 -0.067071
v 0.026169 0.080000 -0.065857
v -0.080032 0.224148 -0.329996
v -0.003226 0.252144 -0.316781
v 0.072756 0.261476 -0.300165
v 0.147913 0.252144 -0.280147
v 0.222245 0.224148 -0.256728
v -0.092050 0.321652 -0.548631
v 0.020379 0.368383 -0.530315
v 0.131051 0.383960 -0.505224
v 0.239966 0.368383 -0.473356
v 0.347123 0.321652 -0.434713
v -0.037357 0.370793 -0.742081
v 0.079511 0.421274 -0.726103
v 0.193581 0.438101 -0.700005
v 0.304852 0.421274 -0.663787
v 0.413324 0.370793 -0.617449
v 0.089581 0.371206 -0.908736
v 0.177172 0.410452 -0.904886
v 0.260817 0.423534 -0.887603
v 0.340514 0.410452 -0.856889
v 0.416265 0.371206 -0.812742
v 0.310244 0.335000 -1.039778
v 0.324177 0.353750 -1.062933
v 0.332907 0.360000 -1.069380
v 0.336436 0.353750 -1.059117
v 0.334764 0.335000 -1.032145
f 271 276 277
f 271 277 272
f 272 277 278
f 272 278 273
f 273 278 279
f 273 279 274
f 274 279 280
f 274 280 275
f 276 281 282
f 276 282 277
f 277 282 283
f 277 283 278
f 278 283 284
f 278 284 279
f 279 284 285
f 279 285 280
f 281 286 287
f 281 287 282
f 282 287 288
f 282 288 283
f 283 288 289
f 283 289 284
f 284 289 290
f 284 290 285
f 286 291 292
f 286 292 287
f 287 292 293
f 287 293 288
f 288 293 294
f 288 294 289
f 289 294 295
f 289 295 290
f 291 296 297
f 291 297 292
f 292 297 298
f 292 298 293
f 293 298 299
f 293 299 294
f 294 299 300
f 294 300 295
o PetalOuter_11
v 0.039049 0.080000 -0.058392
v 0.043097 0.080000 -0.054648
v 0.047145 0.080000 -0.050904
v 0.051193 0.080000 -0.047160
v 0.055240 0.080000 -0.043416
v 0.113351 0.224148 -0.324145
v 0.172988 0.252144 -0.274106
v 0.230898 0.261476 -0.222292
v 0.287080 0.252144 -0.168703
v 0.341536 0.224148 -0.113339
v 0.212004 0.321652 -0.514624
v 0.299205 0.368383 -0.440311
v 0.382862 0.383960 -0.362035
v 0.462976 0.368383 -0.279796
v 0.539547 0.321652 -0.193594
v 0.333398 0.370793 -0.661137
v 0.422856 0.421274 -0.581347
v 0.506520 0.438101 -0.494415
v 0.584390 0.421274 -0.400342
v 0.656466 0.370793 -0.299127
v 0.474609 0.371206 -0.751019
v 0.539855 0.410452 -0.681629
v 0.595834 0.423534 -0.600313
v 0.642548 0.410452 -0.507072
v 0.679995 0.371206 -0.401905
v 0.638929 0.335000 -0.764760
v 0.665616 0.353750 -0.769016
v 0.675633 0.360000 -0.763040
v 0.668980 0.353750 -0.746831
v 0.645658 0.335000 -0.720390
f 301 306 307
f 301 307 302
f 302 307 308
f 302 308 303
f 303 308 309
f 303 309 304
f 304 309 310
f 304 310 305
f 306 311 312
f 306 312 307
f 307 312 313
f 307 313 308
f 308 313 314
f 308 314 309
f 309 314 315
f 309 315 310
f 311 316 317
f 311 317 312
f 312 317 318
f 312 318 313
f 313 318 319
f 313 319 314
f 314 319 320
f 314 320 315
f 316 321 322
f 316 322 317
f 317 322 323
f 317 323 318
f 318 323 324
f 318 324 319
f 319 324 325
f 319 325 320
f 321 326 327
f 321 327 322
f 322 327 328
f 322 328 323
f 323 328 329
f 323 329 324
f 324 329 330
f 324 330 325
o PetalOuter_12
v 0.063033 0.080000 -0.030665
v 0.063582 0.080000 -0.025235
v 0.064132 0.080000 -0.019805
v 0.064681 0.080000 -0.014375
v 0.065231 0.080000 -0.008945
v 0.263691 0.224148 -0.218825
v 0.285898 0.252144 -0.145673
v 0.305582 0.261476 -0.071940
v 0.322744 0.252144 0.002373
v 0.337383 0.224148 0.077268
v 0.513818 0.321652 -0.303201
v 0.546626 0.368383 -0.193498
v 0.573684 0.383960 -0.080927
v 0.594993 0.368383 0.034510
v 0.610553 0.321652 0.152814
v 0.711667 0.370793 -0.358087
v 0.747006 0.421274 -0.244694
v 0.773483 0.438101 -0.125382
v 0.791097 0.421274 -0.000150
v 0.799849 0.370793 0.130001
v 0.871348 0.371206 -0.374376
v 0.901574 0.410452 -0.291637
v 0.921002 0.423534 -0.201886
v 0.929631 0.410452 -0.105124
v 0.927463 0.371206 -0.001350
v 1.000827 0.335000 -0.336691
v 1.021891 0.353750 -0.319682
v 1.022961 0.360000 -0.302673
v 1.004038 0.353750 -0.285665
v 0.965121 0.335000 -0.268656
f 331 336 337
f 331 337 332
f 332 337 338
f 332 338 333
f 333 338 339
f 333 339 334
f 334 339 340
f 334 340 335
f 336 341 342
f 336 342 337
f 337 342 343
f 337 343 338
f 338 343 344
f 338 344 339
f 339 344 345
f 339 345 340
f 341 346 347
f 341 347 342
f 342 347 348
f 342 348 343
f 343 348 349
f 343 349 344
f 344 349 350
f 344 350 345
f 346 351 352
f 346 352 347
f 347 352 353
f 347 353 348
f 348 353 354
f 348 354 349
f 349 354 355
f 349 355 350
f 351 356 357
f 351 357 352
f 352 357 358
f 352 358 353
f 353 358 359
f 353 359 354
f 354 359 360
f 354 360 355
o PetalMid_01
v 0.046629 0.080000 -0.001080
v 0.045936 0.080000 0.003565
v 0.045243 0.080000 0.008211
v 0.044550 0.080000 0.012857
v 0.043857 0.080000 0.017503
v 0.277714 0.256510 -0.068976
v 0.265946 0.284506 -0.006800
v 0.252263 0.293838 0.054917
v 0.236664 0.284506 0.116175
v 0.219149 0.256510 0.176974
v 0.472147 0.391474 -0.074921
v 0.454539 0.438204 0.018434
v 0.431928 0.453781 0.110610
v 0.404314 0.438204 0.201608
v 0.371696 0.391474 0.291427
v 0.641342 0.482570 -0.020911
v 0.622509 0.533051 0.076486
v 0.595383 0.549878 0.172469
v 0.559964 0.533051 0.267038
v 0.516252 0.482570 0.360193
v 0.784282 0.526588 0.090668
v 0.772113 0.565835 0.164147
v 0.749117 0.578917 0.235089
v 0.715294 0.565835 0.303494
v 0.670645 0.526588 0.369362
v 0.891228 0.510000 0.257975
v 0.913859 0.528750 0.267296
v 0.922910 0.535000 0.271373
v 0.918382 0.528750 0.270206
v 0.900276 0.510000 0.263794
f 361 366 367
f 361 367 362
f 362 367 368
f 362 368 363
f 363 368 369
f 363 369 364
f 364 369 370
f 364 370 365
f 366 371 372
f 366 372 367
f 367 372 373
f 367 373 368
f 368 373 374
f 368 374 369
f 369 374 375
f 369 375 370
f 371 376 377
f 371 377 372
f 372 377 378
f 372 378 373
f 373 378 379
f 373 379 374
f 374 379 380
f 374 380 375
f 376 381 382
f 376 382 377
f 377 382 383
f 377 383 378
f 378 383 384
f 378 384 379
f 379 384 385
f 379 385 380
f 381 386 387
f 381 387 382
f 382 387 388
f 382 388 383
f 383 388 389
f 383 389 384
f 384 389 390
f 384 390 385
o PetalMid_02
v 0.038357 0.080000 0.026944
v 0.035072 0.080000 0.030291
v 0.031787 0.080000 0.033638
v 0.028502 0.080000 0.036985
v 0.025217 0.080000 0.040332
v 0.260705 0.256510 0.117056
v 0.216463 0.284506 0.166865
v 0.170754 0.293838 0.214971
v 0.123576 0.284506 0.261374
v 0.074930 0.256510 0.306074
v 0.415117 0.391474 0.285215
v 0.349085 0.438204 0.360173
v 0.278154 0.453781 0.432074
v 0.202326 0.438204 0.500917
v 0.121600 0.391474 0.566703
v 0.528590 0.482570 0.438807
v 0.458278 0.533051 0.517360
v 0.381839 0.549878 0.590204
v 0.299272 0.533051 0.657339
v 0.210578 0.482570 0.718765
v 0.594769 0.526588 0.579599
v 0.543690 0.565835 0.639359
v 0.486577 0.578917 0.694389
v 0.423431 0.565835 0.744690
v 0.354251 0.526588 0.790260
v 0.592489 0.510000 0.700512
v 0.598119 0.528750 0.724704
v 0.594611 0.535000 0.733635
v 0.581963 0.528750 0.727306
v 0.560176 0.510000 0.705717
f 391 396 397
f 391 397 392
f 392 397 398
f 392 398 393
f 393 398 399
f 393 399 394
f 394 399 400
f 394 400 395
f 396 401 402
f 396 402 397
f 397 402 403
f 397 403 398
f 398 403 404
f 398 404 399
f 399 404 405
f 399 405 400
f 401 406 407
f 401 407 402
f 402 407 408
f 402 408 403
f 403 408 409
f 403 409 404
f 404 409 410
f 404 410 405
f 406 411 412
f 406 412 407
f 407 412 413
f 407 413 408
f 408 413 414
f 408 414 409
f 409 414 415
f 409 415 410
f 411 416 417
f 411 417 412
f 412 417 418
f 412 418 413
f 413 418 419
f 413 419 414
f 414 419 420
f 414 420 415
o PetalMid_03
v 0.015434 0.080000 0.044000
v 0.010802 0.080000 0.044773
v 0.006169 0.080000 0.045547
v 0.001537 0.080000 0.046320
v -0.003096 0.080000 0.047093
v 0.149522 0.256510 0.243416
v 0.084793 0.284506 0.255936
v 0.019470 0.293838 0.265646
v -0.046446 0.284506 0.272546
v -0.112956 0.256510 0.276636
v 0.215361 0.391474 0.465575
v 0.116921 0.438204 0.484109
v 0.016896 0.453781 0.496002
v -0.084715 0.438204 0.501254
v -0.187912 0.391474 0.499865
v 0.249036 0.482570 0.666161
v 0.145476 0.533051 0.684346
v 0.039412 0.549878 0.693481
v -0.069159 0.533051 0.693567
v -0.180238 0.482570 0.684604
v 0.246288 0.526588 0.834785
v 0.169185 0.565835 0.848803
v 0.089450 0.578917 0.855661
v 0.007083 0.565835 0.855360
v -0.077914 0.526588 0.847899
v 0.179625 0.510000 0.899767
v 0.163592 0.528750 0.919881
v 0.145614 0.535000 0.919769
v 0.125690 0.528750 0.899431
v 0.103820 0.510000 0.858867
f 421 426 427
f 421 427 422
f 422 427 428
f 422 428 423
f 423 428 429
f 423 429 424
f 424 429 430
f 424 430 425
f 426 431 432
f 426 432 427
f 427 432 433
f 427 433 428
f 428 433 434
f 428 434 429
f 429 434 435
f 429 435 430
f 431 436 437
f 431 437 432
f 432 437 438
f 432 438 433
f 433 438 439
f 433 439 434
f 434 439 440
f 434 440 435
f 436 441 442
f 436 442 437
f 437 442 443
f 437 443 438
f 438 443 444
f 438 444 439
f 439 444 445
f 439 445 440
f 441 446 447
f 441 447 442
f 442 447 448
f 442 448 443
f 443 448 449
f 443 449 444
f 444 449 450
f 444 450 445
o PetalMid_04
v -0.013387 0.080000 0.045259
v -0.017785 0.080000 0.043549
v -0.022183 0.080000 0.041839
v -0.026581 0.080000 0.040129
v -0.030978 0.080000 0.038419
v -0.018792 0.256510 0.284989
v -0.082273 0.284506 0.265914
v -0.144877 0.293838 0.244061
v -0.206603 0.284506 0.219427
v -0.267452 0.256510 0.192015
v -0.066647 0.391474 0.509420
v -0.160475 0.438204 0.474042
v -0.252861 0.453781 0.432050
v -0.343806 0.438204 0.383444
v -0.433310 0.391474 0.328225
v -0.124588 0.482570 0.706112
v -0.222810 0.533051 0.667675
v -0.319324 0.549878 0.621608
v -0.414129 0.533051 0.567911
v -0.507225 0.482570 0.506584
v -0.194213 0.526588 0.863314
v -0.268055 0.565835 0.833677
v -0.341003 0.578917 0.798501
v -0.413056 0.565835 0.757786
v -0.484214 0.526588 0.711531
v -0.293310 0.510000 0.921912
v -0.307943 0.528750 0.898742
v -0.320191 0.535000 0.884606
v -0.330052 0.528750 0.879504
v -0.337528 0.510000 0.883437
f 451 456 457
f 451 457 452
f 452 457 458
f 452 458 453
f 453 458 459
f 453 459 454
f 454 459 460
f 454 460 455
f 456 461 462
f 456 462 457
f 457 462 463
f 457 463 458
f 458 463 464
f 458 464 459
f 459 464 465
f 459 465 460
f 461 466 467
f 461 467 462
f 462 467 468
f 462 468 463
f 463 468 469
f 463 469 464
f 464 469 470
f 464 470 465
f 466 471 472
f 466 472 467
f 467 472 473
f 467 473 468
f 468 473 474
f 468 474 469
f 469 474 475
f 469 475 470
f 471 476 477
f 471 477 472
f 472 477 478
f 472 478 473
f 473 478 479
f 473 479 474
f 474 479 480
f 474 480 475
o PetalMid_05
v -0.037204 0.080000 0.028818
v -0.039691 0.080000 0.024838
v -0.042177 0.080000 0.020857
v -0.044664 0.080000 0.016877
v -0.047150 0.080000 0.012896
v -0.179930 0.256510 0.226412
v -0.217667 0.284506 0.172532
v -0.253230 0.293838 0.117188
v -0.286621 0.284506 0.060380
v -0.317837 0.256510 0.002108
v -0.361611 0.391474 0.360878
v -0.416729 0.438204 0.276910
v -0.467696 0.453781 0.190194
v -0.514511 0.438204 0.100731
v -0.557174 0.391474 0.008519
v -0.523783 0.482570 0.469527
v -0.581206 0.533051 0.381822
v -0.634433 0.549878 0.291032
v -0.683465 0.533051 0.197157
v -0.728302 0.482570 0.100197
v -0.663214 0.526588 0.547736
v -0.707111 0.565835 0.481696
v -0.747024 0.578917 0.413008
v -0.782954 0.565835 0.341672
v -0.814901 0.526588 0.267688
v -0.770357 0.510000 0.556268
v -0.792712 0.528750 0.542732
v -0.807002 0.535000 0.529691
v -0.813228 0.528750 0.517145
v -0.811388 0.510000 0.505094
f 481 486 487
f 481 487 482
f 482 487 488
f 482 488 483
f 483 488 489
f 483 489 484
f 484 489 490
f 484 490 485
f 486 491 492
f 486 492 487
f 487 492 493
f 487 493 488
f 488 493 494
f 488 494 489
f 489 494 495
f 489 495 490
f 491 496 497
f 491 497 492
f 492 497 498
f 492 498 493
f 493 498 499
f 493 499 494
f 494 499 500
f 494 500 495
f 496 501 502
f 496 502 497
f 497 502 503
f 497 503 498
f 498 503 504
f 498 504 499
f 499 504 505
f 499 505 500
f 501 506 507
f 501 507 502
f 502 507 508
f 502 508 503
f 503 508 509
f 503 509 504
f 504 509 510
f 504 510 505
o PetalMid_06
v -0.046629 0.080000 0.001080
v -0.045936 0.080000 -0.003565
v -0.045243 0.080000 -0.008211
v -0.044550 0.080000 -0.012857
v -0.043857 0.080000 -0.017503
v -0.277714 0.256510 0.068976
v -0.265946 0.284506 0.006800
v -0.252263 0.293838 -0.054917
v -0.236664 0.284506 -0.116175
v -0.219149 0.256510 -0.176974
v -0.472147 0.391474 0.074921
v -0.454539 0.438204 -0.018434
v -0.431928 0.453781 -0.110610
v -0.404314 0.438204 -0.201608
v -0.371696 0.391474 -0.291427
v -0.641342 0.482570 0.020911
v -0.622509 0.533051 -0.076486
v -0.595383 0.549878 -0.172469
v -0.559964 0.533051 -0.267038
v -0.516252 0.482570 -0.360193
v -0.784282 0.526588 -0.090668
v -0.772113 0.565835 -0.164147
v -0.749117 0.578917 -0.235089
v -0.715294 0.565835 -0.303494
v -0.670645 0.526588 -0.369362
v -0.891228 0.510000 -0.257975
v -0.913859 0.528750 -0.267296
v -0.922910 0.535000 -0.271373
v -0.918382 0.528750 -0.270206
v -0.900276 0.510000 -0.263794
f 511 516 517
f 511 517 512
f 512 517 518
f 512 518 513
f 513 518 519
f 513 519 514
f 514 519 520
f 514 520 515
f 516 521 522
f 516 522 517
f 517 522 523
f 517 523 518
f 518 523 524
f 518 524 519
f 519 524 525
f 519 525 520
f 521 526 527
f 521 527 522
f 522 527 528
f 522 528 523
f 523 528 529
f 523 529 524
f 524 529 530
f 524 530 525
f 526 531 532
f 526 532 527
f 527 532 533
f 527 533 528
f 528 533 534
f 528 534 529
f 529 534 535
f 529 535 530
f 531 536 537
f 531 537 532
f 532 537 538
f 532 538 533
f 533 538 539
f 533 539 534
f 534 539 540
f 534 540 535
o PetalMid_07
v -0.038357 0.080000 -0.026944
v -0.035072 0.080000 -0.030291
v -0.031787 0.080000 -0.033638
v -0.028502 0.080000 -0.036985
v -0.025217 0.080000 -0.040332
v -0.260705 0.256510 -0.117056
v -0.216463 0.284506 -0.166865
v -0.170754 0.293838 -0.214971
v -0.123576 0.284506 -0.261374
v -0.074930 0.256510 -0.306074
v -0.415117 0.391474 -0.285215
v -0.349085 0.438204 -0.360173
v -0.278154 0.453781 -0.432074
v -0.202326 0.438204 -0.500917
v -0.121600 0.391474 -0.566703
v -0.528590 0.482570 -0.438807
v -0.458278 0.533051 -0.517360
v -0.381839 0.549878 -0.590204
v -0.299272 0.533051 -0.657339
v -0.210578 0.482570 -0.718765
v -0.594769 0.526588 -0.579599
v -0.543690 0.565835 -0.639359
v -0.486577 0.578917 -0.694389
v -0.423431 0.565835 -0.744690
v -0.354251 0.526588 -0.790260
v -0.592489 0.510000 -0.700512
v -0.598119 0.528750 -0.724704
v -0.594611 0.535000 -0.733635
v -0.581963 0.528750 -0.727306
v -0.560176 0.510000 -0.705717
f 541 546 547
f 541 547 542
f 542 547 548
f 542 548 543
f 543 548 549
f 543 549 544
f 544 549 550
f 544 550 545
f 546 551 552
f 546 552 547
f 547 552 553
f 547 553 548
f 548 553 554
f 548 554 549
f 549 554 555
f 549 555 550
f 551 556 557
f 551 557 552
f 552 557 558
f 552 558 553
f 553 558 559
f 553 559 554
f 554 559 560
f 554 560 555
f 556 561 562
f 556 562 557
f 557 562 563
f 557 563 558
f 558 563 564
f 558 564 559
f 559 564 565
f 559 565 560
f 561 566 567
f 561 567 562
f 562 567 568
f 562 568 563
f 563 568 569
f 563 569 564
f 564 569 570
f 564 570 565
o PetalMid_08
v -0.015434 0.080000 -0.044000
v -0.010802 0.080000 -0.044773
v -0.006169 0.080000 -0.045547
v -0.001537 0.080000 -0.046320
v 0.003096 0.080000 -0.047093
v -0.149522 0.256510 -0.243416
v -0.084793 0.284506 -0.255936
v -0.019470 0.293838 -0.265646
v 0.046446 0.284506 -0.272546
v 0.112956 0.256510 -0.276636
v -0.215361 0.391474 -0.465575
v -0.116921 0.438204 -0.484109
v -0.016896 0.453781 -0.496002
v 0.084715 0.438204 -0.501254
v 0.187912 0.391474 -0.499865
v -0.249036 0.482570 -0.666161
v -0.145476 0.533051 -0.684346
v -0.039412 0.549878 -0.693481
v 0.069159 0.533051 -0.693567
v 0.180238 0.482570 -0.684604
v -0.246288 0.526588 -0.834785
v -0.169185 0.565835 -0.848803
v -0.089450 0.578917 -0.855661
v -0.007083 0.565835 -0.855360
v 0.077914 0.526588 -0.847899
v -0.179625 0.510000 -0.899767
v -0.163592 0.528750 -0.919881
v -0.145614 0.535000 -0.919769
v -0.125690 0.528750 -0.899431
v -0.103820 0.510000 -0.858867
f 571 576 577
f 571 577 572
f 572 577 578
f 572 578 573
f 573 578 579
f 573 579 574
f 574 579 580
f 574 580 575
f 576 581 582
f 576 582 577
f 577 582 583
f 577 583 578
f 578 583 584
f 578 584 579
f 579 584 585
f 579 585 580
f 581 586 587
f 581 587 582
f 582 587 588
f 582 588 583
f 583 588 589
f 583 589 584
f 584 589 590
f 584 590 585
f 586 591 592
f 586 592 587
f 587 592 593
f 587 593 588
f 588 593 594
f 588 594 589
f 589 594 595
f 589 595 590
f 591 596 597
f 591 597 592
f 592 597 598
f 592 598 593
f 593 598 599
f 593 599 594
f 594 599 600
f 594 600 595
o PetalMid_09
v 0.013387 0.080000 -0.045259
v 0.017785 0.080000 -0.043549
v 0.022183 0.080000 -0.041839
v 0.026581 0.080000 -0.040129
v 0.030978 0.080000 -0.038419
v 0.018792 0.256510 -0.284989
v 0.082273 0.284506 -0.265914
v 0.144877 0.293838 -0.244061
v 0.206603 0.284506 -0.219427
v 0.267452 0.256510 -0.192015
v 0.066647 0.391474 -0.509420
v 0.160475 0.438204 -0.474042
v 0.252861 0.453781 -0.432050
v 0.343806 0.438204 -0.383444
v 0.433310 0.391474 -0.328225
v 0.124588 0.482570 -0.706112
v 0.222810 0.533051 -0.667675
v 0.319324 0.549878 -0.621608
v 0.414129 0.533051 -0.567911
v 0.507225 0.482570 -0.506584
v 0.194213 0.526588 -0.863314
v 0.268055 0.565835 -0.833677
v 0.341003 0.578917 -0.798501
v 0.413056 0.565835 -0.757786
v 0.484214 0.526588 -0.711531
v 0.293310 0.510000 -0.921912
v 0.307943 0.528750 -0.898742
v 0.320191 0.535000 -0.884606
v 0.330052 0.528750 -0.879504
v 0.337528 0.510000 -0.883437
f 601 606 607
f 601 607 602
f 602 607 608
f 602 608 603
f 603 608 609
f 603 609 604
f 604 609 610
f 604 610 605
f 606 611 612
f 606 612 607
f 607 612 613
f 607 613 608
f 608 613 614
f 608 614 609
f 609 614 615
f 609 615 610
f 611 616 617
f 611 617 612
f 612 617 618
f 612 618 613
f 613 618 619
f 613 619 614
f 614 619 620
f 614 620 615
f 616 621 622
f 616 622 617
f 617 622 623
f 617 623 618
f 618 623 624
f 618 624 619
f 619 624 625
f 619 625 620
f 621 626 627
f 621 627 622
f 622 627 628
f 622 628 623
f 623 628 629
f 623 629 624
f 624 629 630
f 624 630 625
o PetalMid_10
v 0.037204 0.080000 -0.028818
v 0.039691 0.080000 -0.024838
v 0.042177 0.080000 -0.020857
v 0.044664 0.080000 -0.016877
v 0.047150 0.080000 -0.012896
v 0.179930 0.256510 -0.226412
v 0.217667 0.284506 -0.172532
v 0.253230 0.293838 -0.117188
v 0.286621 0.284506 -0.060380
v 0.317837 0.256510 -0.002108
v 0.361611 0.391474 -0.360878
v 0.416729 0.438204 -0.276910
v 0.467696 0.453781 -0.190194
v 0.514511 0.438204 -0.100731
v 0.557174 0.391474 -0.008519
v 0.523783 0.482570 -0.469527
v 0.581206 0.533051 -0.381822
v 0.634433 0.549878 -0.291032
v 0.683465 0.533051 -0.197157
v 0.728302 0.482570 -0.100197
v 0.663214 0.526588 -0.547736
v 0.707111 0.565835 -0.481696
v 0.747024 0.578917 -0.413008
v 0.782954 0.565835 -0.341672
v 0.814901 0.526588 -0.267688
v 0.770357 0.510000 -0.556268
v 0.792712 0.528750 -0.542732
v 0.807002 0.535000 -0.529691
v 0.813228 0.528750 -0.517145
v 0.811388 0.510000 -0.505094
f 631 636 637
f 631 637 632
f 632 637 638
f 632 638 633
f 633 638 639
f 633 639 634
f 634 639 640
f 634 640 635
f 636 641 642
f 636 642 637
f 637 642 643
f 637 643 638
f 638 643 644
f 638 644 639
f 639 644 645
f 639 645 640
f 641 646 647
f 641 647 642
f 642 647 648
f 642 648 643
f 643 648 649
f 643 649 644
f 644 649 650
f 644 650 645
f 646 651 652
f 646 652 647
f 647 652 653
f 647 653 648
f 648 653 654
f 648 654 649
f 649 654 655
f 649 655 650
f 651 656 657
f 651 657 652
f 652 657 658
f 652 658 653
f 653 658 659
f 653 659 654
f 654 659 660
f 654 660 655
o PetalInner_01
v 0.024124 0.080000 0.006575
v 0.023371 0.080000 0.009338
v 0.022617 0.080000 0.012101
v 0.021864 0.080000 0.014864
v 0.021110 0.080000 0.017627
v 0.168943 0.308690 0.002174
v 0.149845 0.336686 0.043008
v 0.129420 0.346018 0.083163
v 0.107667 0.336686 0.122641
v 0.084587 0.308690 0.161440
v 0.291200 0.489993 0.024109
v 0.262455 0.536723 0.085263
v 0.231147 0.552300 0.145061
v 0.197275 0.536723 0.203504
v 0.160840 0.489993 0.260592
v 0.395200 0.621034 0.071482
v 0.364382 0.671515 0.135326
v 0.329317 0.688342 0.197412
v 0.290006 0.671515 0.257741
v 0.246448 0.621034 0.316312
v 0.476277 0.699922 0.141774
v 0.456565 0.739169 0.190195
v 0.430617 0.752251 0.236015
v 0.398433 0.739169 0.279232
v 0.360012 0.699922 0.319847
v 0.527034 0.750000 0.235815
v 0.544374 0.768750 0.243024
v 0.551291 0.775000 0.246584
v 0.547785 0.768750 0.246494
v 0.533854 0.750000 0.242753
f 661 666 667
f 661 667 662
f 662 667 668
f 662 668 663
f 663 668 669
f 663 669 664
f 664 669 670
f 664 670 665
f 666 671 672
f 666 672 667
f 667 672 673
f 667 673 668
f 668 673 674
f 668 674 669
f 669 674 675
f 669 675 670
f 671 676 677
f 671 677 672
f 672 677 678
f 672 678 673
f 673 678 679
f 673 679 674
f 674 679 680
f 674 680 675
f 676 681 682
f 676 682 677
f 677 682 683
f 677 683 678
f 678 683 684
f 678 684 679
f 679 684 685
f 679 685 680
f 681 686 687
f 681 687 682
f 682 687 688
f 682 688 683
f 683 688 689
f 683 689 684
f 684 689 690
f 684 690 685
o PetalInner_02
v 0.012407 0.080000 0.021878
v 0.009962 0.080000 0.023374
v 0.007518 0.080000 0.024870
v 0.005074 0.080000 0.026366
v 0.002629 0.080000 0.027862
v 0.113727 0.308690 0.125775
v 0.071387 0.336686 0.142295
v 0.028463 0.346018 0.156917
v -0.015044 0.336686 0.169641
v -0.059134 0.308690 0.180467
v 0.169800 0.489993 0.248037
v 0.105519 0.536723 0.272662
v 0.039947 0.552300 0.294144
v -0.026917 0.536723 0.312485
v -0.095071 0.489993 0.327683
v 0.204863 0.621034 0.355460
v 0.137553 0.671515 0.381147
v 0.068478 0.688342 0.402618
v -0.002362 0.671515 0.419872
v -0.074966 0.621034 0.432910
v 0.215969 0.699922 0.440118
v 0.164569 0.739169 0.459408
v 0.111253 0.752251 0.475516
v 0.056022 0.739169 0.488444
v -0.001124 0.699922 0.498189
v 0.198854 0.750000 0.528185
v 0.207338 0.768750 0.544995
v 0.207947 0.775000 0.552792
v 0.200680 0.768750 0.551577
v 0.185536 0.750000 0.541351
f 691 696 697
f 691 697 692
f 692 697 698
f 692 698 693
f 693 698 699
f 693 699 694
f 694 699 700
f 694 700 695
f 696 701 702
f 696 702 697
f 697 702 703
f 697 703 698
f 698 703 704
f 698 704 699
f 699 704 705
f 699 705 700
f 701 706 707
f 701 707 702
f 702 707 708
f 702 708 703
f 703 708 709
f 703 709 704
f 704 709 710
f 704 710 705
f 706 711 712
f 706 712 707
f 707 712 713
f 707 713 708
f 708 713 714
f 708 714 709
f 709 714 715
f 709 715 710
f 711 716 717
f 711 717 712
f 712 717 718
f 712 718 713
f 713 718 719
f 713 719 714
f 714 719 720
f 714 720 715
o PetalInner_03
v -0.006575 0.080000 0.024124
v -0.009338 0.080000 0.023371
v -0.012101 0.080000 0.022617
v -0.014864 0.080000 0.021864
v -0.017627 0.080000 0.021110
v -0.002174 0.308690 0.168943
v -0.043008 0.336686 0.149845
v -0.083163 0.346018 0.129420
v -0.122641 0.336686 0.107667
v -0.161440 0.308690 0.084587
v -0.024109 0.489993 0.291200
v -0.085263 0.536723 0.262455
v -0.145061 0.552300 0.231147
v -0.203504 0.536723 0.197275
v -0.260592 0.489993 0.160840
v -0.071482 0.621034 0.395200
v -0.135326 0.671515 0.364382
v -0.197412 0.688342 0.329317
v -0.257741 0.671515 0.290006
v -0.316312 0.621034 0.246448
v -0.141774 0.699922 0.476277
v -0.190195 0.739169 0.456565
v -0.236015 0.752251 0.430617
v -0.279232 0.739169 0.398433
v -0.319847 0.699922 0.360012
v -0.235815 0.750000 0.527034
v -0.243024 0.768750 0.544374
v -0.246584 0.775000 0.551291
v -0.246494 0.768750 0.547785
v -0.242753 0.750000 0.533854
f 721 726 727
f 721 727 722
f 722 727 728
f 722 728 723
f 723 728 729
f 723 729 724
f 724 729 730
f 724 730 725
f 726 731 732
f 726 732 727
f 727 732 733
f 727 733 728
f 728 733 734
f 728 734 729
f 729 734 735
f 729 735 730
f 731 736 737
f 731 737 732
f 732 737 738
f 732 738 733
f 733 738 739
f 733 739 734
f 734 739 740
f 734 740 735
f 736 741 742
f 736 742 737
f 737 742 743
f 737 743 738
f 738 743 744
f 738 744 739
f 739 744 745
f 739 745 740
f 741 746 747
f 741 747 742
f 742 747 748
f 742 748 743
f 743 748 749
f 743 749 744
f 744 749 750
f 744 750 745
o PetalInner_04
v -0.021878 0.080000 0.012407
v -0.023374 0.080000 0.009962
v -0.024870 0.080000 0.007518
v -0.026366 0.080000 0.005074
v -0.027862 0.080000 0.002629
v -0.125775 0.308690 0.113727
v -0.142295 0.336686 0.071387
v -0.156917 0.346018 0.028463
v -0.169641 0.336686 -0.015044
v -0.180467 0.308690 -0.059134
v -0.248037 0.489993 0.169800
v -0.272662 0.536723 0.105519
v -0.294144 0.552300 0.039947
v -0.312485 0.536723 -0.026917
v -0.327683 0.489993 -0.095071
v -0.355460 0.621034 0.204863
v -0.381147 0.671515 0.137553
v -0.402618 0.688342 0.068478
v -0.419872 0.671515 -0.002362
v -0.432910 0.621034 -0.074966
v -0.440118 0.699922 0.215969
v -0.459408 0.739169 0.164569
v -0.475516 0.752251 0.111253
v -0.488444 0.739169 0.056022
v -0.498189 0.699922 -0.001124
v -0.528185 0.750000 0.198854
v -0.544995 0.768750 0.207338
v -0.552792 0.775000 0.207947
v -0.551577 0.768750 0.200680
v -0.541351 0.750000 0.185536
f 751 756 757
f 751 757 752
f 752 757 758
f 752 758 753
f 753 758 759
f 753 759 754
f 754 759 760
f 754 760 755
f 756 761 762
f 756 762 757
f 757 762 763
f 757 763 758
f 758 763 764
f 758 764 759
f 759 764 765
f 759 765 760
f 761 766 767
f 761 767 762
f 762 767 768
f 762 768 763
f 763 768 769
f 763 769 764
f 764 769 770
f 764 770 765
f 766 771 772
f 766 772 767
f 767 772 773
f 767 773 768
f 768 773 774
f 768 774 769
f 769 774 775
f 769 775 770
f 771 776 777
f 771 777 772
f 772 777 778
f 772 778 773
f 773 778 779
f 773 779 774
f 774 779 780
f 774 780 775
o PetalInner_05
v -0.024124 0.080000 -0.006575
v -0.023371 0.080000 -0.009338
v -0.022617 0.080000 -0.012101
v -0.021864 0.080000 -0.014864
v -0.021110 0.080000 -0.017627
v -0.168943 0.308690 -0.002174
v -0.149845 0.336686 -0.043008
v -0.129420 0.346018 -0.083163
v -0.107667 0.336686 -0.122641
v -0.084587 0.308690 -0.161440
v -0.291200 0.489993 -0.024109
v -0.262455 0.536723 -0.085263
v -0.231147 0.552300 -0.145061
v -0.197275 0.536723 -0.203504
v -0.160840 0.489993 -0.260592
v -0.395200 0.621034 -0.071482
v -0.364382 0.671515 -0.135326
v -0.329317 0.688342 -0.197412
v -0.290006 0.671515 -0.257741
v -0.246448 0.621034 -0.316312
v -0.476277 0.699922 -0.141774
v -0.456565 0.739169 -0.190195
v -0.430617 0.752251 -0.236015
v -0.398433 0.739169 -0.279232
v -0.360012 0.699922 -0.319847
v -0.527034 0.750000 -0.235815
v -0.544374 0.768750 -0.243024
v -0.551291 0.775000 -0.246584
v -0.547785 0.768750 -0.246494
v -0.533854 0.750000 -0.242753
f 781 786 787
f 781 787 782
f 782 787 788
f 782 788 783
f 783 788 789
f 783 789 784
f 784 789 790
f 784 790 785
f 786 791 792
f 786 792 787
f 787 792 793
f 787 793 788
f 788 793 794
f 788 794 789
f 789 794 795
f 789 795 790
f 791 796 797
f 791 797 792
f 792 797 798
f 792 798 793
f 793 798 799
f 793 799 794
f 794 799 800
f 794 800 795
f 796 801 802
f 796 802 797
f 797 802 803
f 797 803 798
f 798 803 804
f 798 804 799
f 799 804 805
f 799 805 800
f 801 806 807
f 801 807 802
f 802 807 808
f 802 808 803
f 803 808 809
f 803 809 804
f 804 809 810
f 804 810 805
o PetalInner_06
v -0.012407 0.080000 -0.021878
v -0.009962 0.080000 -0.023374
v -0.007518 0.080000 -0.024870
v -0.005074 0.080000 -0.026366
v -0.002629 0.080000 -0.027862
v -0.113727 0.308690 -0.125775
v -0.071387 0.336686 -0.142295
v -0.028463 0.346018 -0.156917
v 0.015044 0.336686 -0.169641
v 0.059134 0.308690 -0.180467
v -0.169800 0.489993 -0.248037
v -0.105519 0.536723 -0.272662
v -0.039947 0.552300 -0.294144
v 0.026917 0.536723 -0.312485
v 0.095071 0.489993 -0.327683
v -0.204863 0.621034 -0.355460
v -0.137553 0.671515 -0.381147
v -0.068478 0.688342 -0.402618
v 0.002362 0.671515 -0.419872
v 0.074966 0.621034 -0.432910
v -0.215969 0.699922 -0.440118
v -0.164569 0.739169 -0.459408
v -0.111253 0.752251 -0.475516
v -0.056022 0.739169 -0.488444
v 0.001124 0.699922 -0.498189
v -0.198854 0.750000 -0.528185
v -0.207338 0.768750 -0.544995
v -0.207947 0.775000 -0.552792
v -0.200680 0.768750 -0.551577
v -0.185536 0.750000 -0.541351
f 811 816 817
f 811 817 812
f 812 817 818
f 812 818 813
f 813 818 819
f 813 819 814
f 814 819 820
f 814 820 815
f 816 821 822
f 816 822 817
f 817 822 823
f 817 823 818
f 818 823 824
f 818 824 819
f 819 824 825
f 819 825 820
f 821 826 827
f 821 827 822
f 822 827 828
f 822 828 823
f 823 828 829
f 823 829 824
f 824 829 830
f 824 830 825
f 826 831 832
f 826 832 827
f 827 832 833
f 827 833 828
f 828 833 834
f 828 834 829
f 829 834 835
f 829 835 830
f 831 836 837
f 831 837 832
f 832 837 838
f 832 838 833
f 833 838 839
f 833 839 834
f 834 839 840
f 834 840 835
o PetalInner_07
v 0.006575 0.080000 -0.024124
v 0.009338 0.080000 -0.023371
v 0.012101 0.080000 -0.022617
v 0.014864 0.080000 -0.021864
v 0.017627 0.080000 -0.021110
v 0.002174 0.308690 -0.168943
v 0.043008 0.336686 -0.149845
v 0.083163 0.346018 -0.129420
v 0.122641 0.336686 -0.107667
v 0.161440 0.308690 -0.084587
v 0.024109 0.489993 -0.291200
v 0.085263 0.536723 -0.262455
v 0.145061 0.552300 -0.231147
v 0.203504 0.536723 -0.197275
v 0.260592 0.489993 -0.160840
v 0.071482 0.621034 -0.395200
v 0.135326 0.671515 -0.364382
v 0.197412 0.688342 -0.329317
v 0.257741 0.671515 -0.290006
v 0.316312 0.621034 -0.246448
v 0.141774 0.699922 -0.476277
v 0.190195 0.739169 -0.456565
v 0.236015 0.752251 -0.430617
v 0.279232 0.739169 -0.398433
v 0.319847 0.699922 -0.360012
v 0.235815 0.750000 -0.527034
v 0.243024 0.768750 -0.544374
v 0.246584 0.775000 -0.551291
v 0.246494 0.768750 -0.547785
v 0.242753 0.750000 -0.533854
f 841 846 847
f 841 847 842
f 842 847 848
f 842 848 843
f 843 848 849
f 843 849 844
f 844 849 850
f 844 850 845
f 846 851 852
f 846 852 847
f 847 852 853
f 847 853 848
f 848 853 854
f 848 854 849
f 849 854 855
f 849 855 850
f 851 856 857
f 851 857 852
f 852 857 858
f 852 858 853
f 853 858 859
f 853 859 854
f 854 859 860
f 854 860 855
f 856 861 862
f 856 862 857
f 857 862 863
f 857 863 858
f 858 863 864
f 858 864 859
f 859 864 865
f 859 865 860
f 861 866 867
f 861 867 862
f 862 867 868
f 862 868 863
f 863 868 869
f 863 869 864
f 864 869 870
f 864 870 865
o PetalInner_08
v 0.021878 0.080000 -0.012407
v 0.023374 0.080000 -0.009962
v 0.024870 0.080000 -0.007518
v 0.026366 0.080000 -0.005074
v 0.027862 0.080000 -0.002629
v 0.125775 0.308690 -0.113727
v 0.142295 0.336686 -0.071387
v 0.156917 0.346018 -0.028463
v 0.169641 0.336686 0.015044
v 0.180467 0.308690 0.059134
v 0.248037 0.489993 -0.169800
v 0.272662 0.536723 -0.105519
v 0.294144 0.552300 -0.039947
v 0.312485 0.536723 0.026917
v 0.327683 0.489993 0.095071
v 0.355460 0.621034 -0.204863
v 0.381147 0.671515 -0.137553
v 0.402618 0.688342 -0.068478
v 0.419872 0.671515 0.002362
v 0.432910 0.621034 0.074966
v 0.440118 0.699922 -0.215969
v 0.459408 0.739169 -0.164569
v 0.475516 0.752251 -0.111253
v 0.488444 0.739169 -0.056022
v 0.498189 0.699922 0.001124
v 0.528185 0.750000 -0.198854
v 0.544995 0.768750 -0.207338
v 0.552792 0.775000 -0.207947
v 0.551577 0.768750 -0.200680
v 0.541351 0.750000 -0.185536
f 871 876 877
f 871 877 872
f 872 877 878
f 872 878 873
f 873 878 879
f 873 879 874
f 874 879 880
f 874 880 875
f 876 881 882
f 876 882 877
f 877 882 883
f 877 883 878
f 878 883 884
f 878 884 879
f 879 884 885
f 879 885 880
f 881 886 887
f 881 887 882
f 882 887 888
f 882 888 883
f 883 888 889
f 883 889 884
f 884 889 890
f 884 890 885
f 886 891 892
f 886 892 887
f 887 892 893
f 887 893 888
f 888 893 894
f 888 894 889
f 889 894 895
f 889 895 890
f 891 896 897
f 891 897 892
f 892 897 898
f 892 898 893
f 893 898 899
f 893 899 894
f 894 899 900
f 894 900 895
o LotusCenter
v 0.160000 0.100000 0.000000
v 0.138564 0.100000 0.080000
v 0.080000 0.100000 0.138564
v 0.000000 0.100000 0.160000
v -0.080000 0.100000 0.138564
v -0.138564 0.100000 0.080000
v -0.160000 0.100000 0.000000
v -0.138564 0.100000 -0.080000
v -0.080000 0.100000 -0.138564
v -0.000000 0.100000 -0.160000
v 0.080000 0.100000 -0.138564
v 0.138564 0.100000 -0.080000
v 0.110000 0.300000 0.000000
v 0.095263 0.300000 0.055000
v 0.055000 0.300000 0.095263
v 0.000000 0.300000 0.110000
v -0.055000 0.300000 0.095263
v -0.095263 0.300000 0.055000
v -0.110000 0.300000 0.000000
v -0.095263 0.300000 -0.055000
v -0.055000 0.300000 -0.095263
v -0.000000 0.300000 -0.110000
v 0.055000 0.300000 -0.095263
v 0.095263 0.300000 -0.055000
v 0.000000 0.470000 0.000000
f 901 902 914
f 901 914 913
f 913 914 925
f 902 903 915
f 902 915 914
f 914 915 925
f 903 904 916
f 903 916 915
f 915 916 925
f 904 905 917
f 904 917 916
f 916 917 925
f 905 906 918
f 905 918 917
f 917 918 925
f 906 907 919
f 906 919 918
f 918 919 925
f 907 908 920
f 907 920 919
f 919 920 925
f 908 909 921
f 908 921 920
f 920 921 925
f 909 910 922
f 909 922 921
f 921 922 925
f 910 911 923
f 910 923 922
f 922 923 925
f 911 912 924
f 911 924 923
f 923 924 925
f 912 901 913
f 912 913 924
f 924 913 925
v 0.235000 0.225000 0.000000
v 0.182500 0.225000 0.030311
v 0.182500 0.225000 -0.030311
v 0.200000 0.410000 0.000000
f 926 927 929
f 927 928 929
f 928 926 929
v 0.166170 0.225000 0.166170
v 0.107626 0.225000 0.150930
v 0.150930 0.225000 0.107626
v 0.141421 0.410000 0.141421
f 930 931 933
f 931 932 933
f 932 930 933
v 0.000000 0.225000 0.235000
v -0.030311 0.225000 0.182500
v 0.030311 0.225000 0.182500
v 0.000000 0.410000 0.200000
f 934 935 937
f 935 936 937
f 936 934 937
v -0.166170 0.225000 0.166170
v -0.150930 0.225000 0.107626
v -0.107626 0.225000 0.150930
v -0.141421 0.410000 0.141421
f 938 939 941
f 939 940 941
f 940 938 941
v -0.235000 0.225000 0.000000
v -0.182500 0.225000 -0.030311
v -0.182500 0.225000 0.030311
v -0.200000 0.410000 0.000000
f 942 943 945
f 943 944 945
f 944 942 945
v -0.166170 0.225000 -0.166170
v -0.107626 0.225000 -0.150930
v -0.150930 0.225000 -0.107626
v -0.141421 0.410000 -0.141421
f 946 947 949
f 947 948 949
f 948 946 949
v -0.000000 0.225000 -0.235000
v 0.030311 0.225000 -0.182500
v -0.030311 0.225000 -0.182500
v -0.000000 0.410000 -0.200000
f 950 951 953
f 951 952 953
f 952 950 953
v 0.166170 0.225000 -0.166170
v 0.150930 0.225000 -0.107626
v 0.107626 0.225000 -0.150930
v 0.141421 0.410000 -0.141421
f 954 955 957
f 955 956 957
f 956 954 957
