<svg xmlns="http://www.w3.org/2000/svg" viewBox="0 0 108 108" width="108" height="108">
  <defs>
    <linearGradient id="bg" x1="0" y1="0" x2="1" y2="1">
      <stop offset="0" stop-color="#6366f1"/>
      <stop offset="1" stop-color="#312e81"/>
    </linearGradient>
    <linearGradient id="page" x1="0" y1="0" x2="0" y2="1">
      <stop offset="0" stop-color="#fffdf7"/>
      <stop offset="1" stop-color="#f0e7d5"/>
    </linearGradient>
  </defs>
  <rect width="108" height="108" rx="24" fill="url(#bg)"/>
  <path d="M54 34c-6-5-14-7-22-6v42c8-1 16 1 22 6 6-5 14-7 22-6V28c-8-1-16 1-22 6z" fill="url(#page)"/>
  <path d="M54 34v42" stroke="#c9bfa6" stroke-width="2.4" fill="none"/>
  <path d="M64 46v14.5a6.2 6.2 0 1 1-4.2-5.9V43l12-2.6v13.9" stroke="#b4832b" stroke-width="3.4" fill="none" stroke-linecap="round" stroke-linejoin="round"/>
  <circle cx="66.2" cy="60.6" r="5.2" fill="#b4832b"/>
</svg>
