<svg xmlns="http://www.w3.org/2000/svg" viewBox="0 0 1536 864" role="img" aria-labelledby="title desc">
  <title id="title">Поддержи проект</title>
  <desc id="desc">Постер поддержки проекта в синих и золотых цветах</desc>
  <defs>
    <linearGradient id="bg" x1="0" y1="0" x2="1" y2="1"><stop offset="0" stop-color="#eef5ff"/><stop offset=".55" stop-color="#dbe8ff"/><stop offset="1" stop-color="#b8ceff"/></linearGradient>
    <linearGradient id="blue" x1="0" y1="0" x2="0" y2="1"><stop offset="0" stop-color="#4f8fff"/><stop offset=".5" stop-color="#1d55d6"/><stop offset="1" stop-color="#263a9e"/></linearGradient>
    <linearGradient id="gold" x1="0" y1="0" x2="1" y2="1"><stop offset="0" stop-color="#fff0a4"/><stop offset=".35" stop-color="#ffc64c"/><stop offset=".7" stop-color="#e49a24"/><stop offset="1" stop-color="#fff0a4"/></linearGradient>
    <radialGradient id="halo"><stop offset="0" stop-color="#fff" stop-opacity=".95"/><stop offset=".55" stop-color="#d7e7ff" stop-opacity=".6"/><stop offset="1" stop-color="#d7e7ff" stop-opacity="0"/></radialGradient>
    <filter id="shadow" x="-20%" y="-20%" width="140%" height="150%"><feDropShadow dx="0" dy="12" stdDeviation="14" flood-color="#24428e" flood-opacity=".28"/></filter>
  </defs>
  <rect width="1536" height="864" fill="url(#bg)"/>
  <circle cx="768" cy="455" r="420" fill="url(#halo)"/>
  <g opacity=".75" fill="#fff"><circle cx="120" cy="230" r="3"/><circle cx="1380" cy="280" r="4"/><circle cx="280" cy="690" r="3"/><circle cx="1270" cy="690" r="3"/></g>
  <g filter="url(#shadow)"><rect x="300" y="52" width="936" height="206" rx="82" fill="url(#blue)" stroke="url(#gold)" stroke-width="14"/><rect x="515" y="214" width="506" height="82" rx="35" fill="url(#blue)" stroke="url(#gold)" stroke-width="12"/></g>
  <text x="768" y="175" text-anchor="middle" font-family="Georgia,serif" font-size="112" font-weight="700" fill="#fffaf1" stroke="#9d5423" stroke-width="4" paint-order="stroke">ПОДДЕРЖИ</text>
  <text x="768" y="272" text-anchor="middle" font-family="Georgia,serif" font-size="66" font-weight="700" fill="#fff2bd" stroke="#8b4b20" stroke-width="3" paint-order="stroke">ПРОЕКТ</text>
  <g fill="#ffd45c"><text x="372" y="164" font-size="54">✦</text><text x="1165" y="164" font-size="54">✦</text><text x="742" y="55" font-size="52">✦</text></g>
  <g filter="url(#shadow)"><ellipse cx="768" cy="700" rx="448" ry="92" fill="url(#blue)" stroke="url(#gold)" stroke-width="12"/><rect x="582" y="330" width="372" height="362" rx="76" fill="url(#blue)" stroke="url(#gold)" stroke-width="13"/></g>
  <circle cx="768" cy="510" r="150" fill="#152c82" stroke="#fff2d0" stroke-width="12"/>
  <path d="M768 418v170M696 492h144" stroke="url(#gold)" stroke-width="32" stroke-linecap="round"/>
  <path d="M768 565 C720 515 650 548 650 608 C650 672 720 704 768 746 C816 704 886 672 886 608 C886 548 816 515 768 565Z" fill="url(#blue)" stroke="url(#gold)" stroke-width="13"/>
  <ellipse cx="768" cy="694" rx="170" ry="48" fill="#f5b83e" stroke="#fff0a4" stroke-width="9"/><rect x="670" y="678" width="196" height="24" rx="12" fill="#9b5b19"/>
  <g fill="url(#gold)" stroke="#fff0a4" stroke-width="5"><ellipse cx="430" cy="555" rx="58" ry="30" transform="rotate(28 430 555)"/><ellipse cx="1106" cy="555" rx="58" ry="30" transform="rotate(-28 1106 555)"/><ellipse cx="500" cy="650" rx="52" ry="28" transform="rotate(10 500 650)"/><ellipse cx="1036" cy="650" rx="52" ry="28" transform="rotate(-10 1036 650)"/></g>
  <g fill="#fff3bc" font-family="Arial,sans-serif" font-size="28" font-weight="700" text-anchor="middle"><text x="430" y="564">♡</text><text x="1106" y="564">♡</text><text x="500" y="659">♡</text><text x="1036" y="659">♡</text></g>
  <g filter="url(#shadow)"><rect x="575" y="760" width="386" height="84" rx="38" fill="url(#blue)" stroke="url(#gold)" stroke-width="12"/></g>
  <text x="768" y="820" text-anchor="middle" font-family="Georgia,serif" font-size="62" font-weight="700" fill="#fff2bd" stroke="#8b4b20" stroke-width="2" paint-order="stroke">ДОНАТ</text>
</svg>