# Woven Basket Low Poly - geometry derived from user supplied CC-BY-4.0 GLB
# Author: nyilonelycompany / lonely_company
# Source: https://sketchfab.com/3d-models/woven-basket-low-poly-f60f6cf9eb5548a890b0b4c1e8c85245
# License: CC BY 4.0
o WovenBasket
v 0.16599 0.84449 -0.95660
v -0.17014 0.84449 -0.95536
v -0.16521 0.84449 -0.92885
v 0.16119 0.84449 -0.93005
v 0.75444 0.84449 -0.00277
v 0.66845 0.84449 -0.42764
v 0.65135 0.84449 -0.41640
v 0.73400 0.84449 -0.00270
v 0.67025 0.84449 0.42264
v 0.65310 0.84449 0.41153
v 0.46087 0.84449 0.76460
v 0.44880 0.84449 0.74400
v 0.17014 0.84449 0.95536
v 0.16521 0.84449 0.92885
v -0.16599 0.84449 0.95660
v -0.16119 0.84449 0.93005
v -0.45768 0.84449 0.76806
v -0.44569 0.84449 0.74736
v -0.66845 0.84449 0.42764
v -0.65135 0.84449 0.41640
v -0.75444 0.84449 0.00277
v -0.73400 0.84449 0.00270
v -0.67025 0.84449 -0.42264
v -0.75444 0.84449 0.00277
v -0.73400 0.84449 0.00270
v -0.65310 0.84449 -0.41153
v -0.46087 0.84449 -0.76460
v -0.44880 0.84449 -0.74400
v 0.43392 0.82855 -0.72709
v 0.15678 0.82857 -0.90522
v 0.14207 0.59112 -0.81734
v 0.39256 0.59116 -0.65653
v 0.14888 0.56299 -0.85328
v 0.16828 0.82885 -0.96876
v 0.46350 0.82882 -0.77813
v 0.40976 0.56299 -0.68538
v 0.67685 0.82889 -0.43340
v 0.59230 0.56299 -0.38173
v -0.66179 0.56299 0.00248
v -0.76372 0.82901 0.00281
v -0.67868 0.82889 -0.42834
v -0.59389 0.56299 -0.37727
v 0.15259 0.56299 0.85218
v 0.17249 0.82885 0.96751
v -0.16828 0.82885 0.96876
v -0.14888 0.56299 0.85328
v 0.76372 0.82901 -0.00281
v 0.66179 0.56299 -0.00248
v -0.46673 0.82882 -0.77462
v -0.41261 0.56299 -0.68229
v -0.46350 0.82882 0.77813
v -0.40976 0.56299 0.68538
v 0.67868 0.82889 0.42834
v 0.59389 0.56299 0.37727
v -0.17249 0.82885 -0.96751
v -0.15259 0.56299 -0.85218
v -0.67685 0.82889 0.43340
v -0.59230 0.56299 0.38173
v 0.46673 0.82882 0.77462
v 0.41261 0.56299 0.68229
v 0.45768 0.84449 -0.76807
v 0.44569 0.84449 -0.74736
v -0.76372 0.82901 0.00281
v -0.66179 0.56299 0.00248
v 0.19659 0.03967 0.19055
v 0.11801 0.03967 0.34433
v 0.21512 0.08449 0.36542
v 0.29965 0.08462 0.20209
v 0.31409 0.33782 -0.52968
v 0.11469 0.33775 -0.65939
v 0.07900 0.08438 -0.45694
v 0.21362 0.08449 -0.36708
v -0.15678 0.82857 0.90522
v 0.16069 0.82857 0.90405
v 0.14562 0.59112 0.81629
v -0.14207 0.59112 0.81734
v -0.11756 0.33775 -0.65854
v -0.31628 0.33782 -0.52730
v -0.21512 0.08449 -0.36542
v -0.08097 0.08438 -0.45635
v -0.44815 0.33791 -0.29159
v -0.29965 0.08462 -0.20209
v -0.49420 0.33795 0.00191
v -0.32753 0.08467 0.00133
v -0.49420 0.33795 0.00191
v -0.44696 0.33791 0.29504
v -0.29885 0.08462 0.20448
v -0.32753 0.08467 0.00133
v -0.31409 0.33782 0.52968
v -0.21362 0.08449 0.36708
v -0.11469 0.33775 0.65939
v -0.07900 0.08438 0.45694
v 0.11756 0.33775 0.65854
v 0.08097 0.08438 0.45635
v -0.08118 0.04739 0.38075
v -0.11660 0.03967 0.34524
v -0.21362 0.08449 0.36708
v -0.07900 0.08438 0.45694
v 0.08274 0.04740 0.38015
v 0.08097 0.08438 0.45635
v 0.22231 0.03967 -0.00091
v 0.32753 0.08467 -0.00133
v 0.44696 0.33791 -0.29504
v 0.29885 0.08462 -0.20448
v 0.08785 0.06078 -0.50591
v 0.11699 0.28150 -0.67025
v 0.31880 0.28150 -0.53836
v 0.23692 0.06098 -0.40648
v -0.11991 0.28150 -0.66938
v -0.32102 0.28150 -0.53594
v -0.23859 0.06098 -0.40465
v -0.09005 0.06078 -0.50525
v -0.45286 0.28150 -0.29634
v -0.33180 0.06122 -0.22383
v -0.49817 0.28150 0.00194
v -0.36229 0.06133 0.00147
v -0.45166 0.28150 0.29985
v -0.49817 0.28150 0.00194
v -0.33091 0.06122 0.22647
v -0.36229 0.06133 0.00147
v -0.31880 0.28150 0.53836
v -0.23692 0.06098 0.40648
v -0.11699 0.28150 0.67025
v -0.08785 0.06078 0.50591
v 0.11991 0.28150 0.66938
v 0.09005 0.06078 0.50525
v 0.05450 0.00000 0.36879
v 0.13822 0.00000 0.33814
v 0.23859 0.06098 0.40465
v 0.32102 0.28150 0.53594
v -0.07854 0.00000 0.20528
v -0.05366 0.00000 0.36956
v -0.16667 0.00000 0.29668
v -0.21336 0.00000 0.20574
v 0.45286 0.28150 0.29634
v -0.07888 0.00000 0.00041
v -0.24108 0.00000 0.00099
v 0.49817 0.28150 -0.00194
v -0.07922 -0.00000 -0.20448
v -0.21415 -0.00000 -0.20401
v 0.45166 0.28150 -0.29985
v -0.05450 -0.00000 -0.36879
v -0.16626 -0.00000 -0.29852
v 0.33091 0.06122 -0.22647
v 0.49420 0.33795 -0.00191
v 0.32753 0.08467 -0.00133
v 0.44815 0.33791 0.29159
v 0.29965 0.08462 0.20209
v 0.31628 0.33782 0.52730
v 0.21512 0.08449 0.36542
v 0.33180 0.06122 0.22383
v 0.36229 0.06133 -0.00147
v -0.05450 -0.00000 -0.36879
v -0.16626 -0.00000 -0.29852
v 0.21336 -0.00000 -0.20574
v 0.16505 -0.00000 -0.29983
v 0.24108 -0.00000 -0.00099
v 0.21415 0.00000 0.20401
v 0.05366 -0.00000 -0.36956
v -0.16667 0.00000 0.29668
v -0.05366 0.00000 0.36956
v -0.21336 0.00000 0.20574
v -0.24108 0.00000 0.00099
v -0.21415 -0.00000 -0.20401
v -0.24108 0.00000 0.00099
v -0.11809 0.03967 -0.34433
v 0.11668 0.03967 -0.34524
v 0.07841 0.05069 -0.38792
v -0.08002 0.05069 -0.38733
v 0.19589 0.03967 -0.19213
v -0.19663 0.03967 -0.19055
v -0.22231 0.03967 0.00091
v -0.19585 0.03967 0.19213
v -0.29885 0.08462 0.20448
v -0.32753 0.08467 0.00133
v -0.29965 0.08462 -0.20209
v -0.21512 0.08449 -0.36542
v -0.08097 0.08438 -0.45635
v 0.07900 0.08438 -0.45694
v 0.29885 0.08462 -0.20448
v 0.21362 0.08449 -0.36708
v 0.39529 0.59116 0.65357
v 0.43694 0.82855 0.72382
v 0.56993 0.59120 0.36140
v 0.63532 0.82861 0.40024
v 0.63552 0.59122 -0.00237
v 0.71362 0.82870 -0.00263
v 0.56842 0.59120 -0.36568
v 0.63362 0.82861 -0.40497
v -0.14562 0.59112 -0.81629
v -0.43392 0.82856 0.72709
v -0.39256 0.59116 0.65653
v -0.63362 0.82861 0.40497
v -0.56842 0.59120 0.36568
v -0.71362 0.82870 0.00263
v -0.63552 0.59122 0.00237
v -0.63532 0.82861 -0.40024
v -0.71362 0.82870 0.00263
v -0.63552 0.59122 0.00237
v -0.56993 0.59120 -0.36140
v -0.43694 0.82855 -0.72382
v -0.39529 0.59116 -0.65357
v -0.16069 0.82857 -0.90405
v 0.16505 -0.00000 -0.29983
v 0.21336 -0.00000 -0.20574
v 0.07854 -0.00000 -0.20528
v 0.05366 -0.00000 -0.36956
v 0.24108 -0.00000 -0.00099
v 0.07888 -0.00000 -0.00041
v 0.21415 0.00000 0.20401
v 0.07922 0.00000 0.20448
v 0.13822 0.00000 0.33814
v 0.05450 0.00000 0.36879
f 1 2 3
f 1 3 4
f 5 6 7
f 5 7 8
f 9 5 8
f 9 8 10
f 11 9 10
f 11 10 12
f 13 11 12
f 13 12 14
f 15 13 14
f 15 14 16
f 17 15 16
f 17 16 18
f 19 17 18
f 19 18 20
f 21 19 20
f 21 20 22
f 23 24 25
f 23 25 26
f 27 23 26
f 27 26 28
f 2 27 28
f 2 28 3
f 29 30 31
f 29 31 32
f 33 34 35
f 33 35 36
f 36 35 37
f 36 37 38
f 39 40 41
f 39 41 42
f 43 44 45
f 43 45 46
f 38 37 47
f 38 47 48
f 42 41 49
f 42 49 50
f 46 45 51
f 46 51 52
f 48 47 53
f 48 53 54
f 50 49 55
f 50 55 56
f 52 51 57
f 52 57 58
f 54 53 59
f 54 59 60
f 61 1 4
f 61 4 62
f 6 61 62
f 6 62 7
f 58 57 63
f 58 63 64
f 65 66 67
f 65 67 68
f 60 59 44
f 60 44 43
f 69 70 71
f 69 71 72
f 73 74 75
f 73 75 76
f 77 78 79
f 77 79 80
f 78 81 82
f 78 82 79
f 81 83 84
f 81 84 82
f 85 86 87
f 85 87 88
f 86 89 90
f 86 90 87
f 89 91 92
f 89 92 90
f 91 93 94
f 91 94 92
f 95 96 97
f 95 97 98
f 99 95 98
f 99 98 100
f 66 99 100
f 66 100 67
f 101 65 68
f 101 68 102
f 103 69 72
f 103 72 104
f 105 106 107
f 105 107 108
f 109 56 33
f 109 33 106
f 110 50 56
f 110 56 109
f 111 110 109
f 111 109 112
f 113 42 50
f 113 50 110
f 114 113 110
f 114 110 111
f 115 39 42
f 115 42 113
f 116 115 113
f 116 113 114
f 117 58 64
f 117 64 118
f 119 117 118
f 119 118 120
f 121 52 58
f 121 58 117
f 122 121 117
f 122 117 119
f 123 46 52
f 123 52 121
f 124 123 121
f 124 121 122
f 125 43 46
f 125 46 123
f 126 127 128
f 126 128 129
f 130 60 43
f 130 43 125
f 131 132 133
f 131 133 134
f 135 54 60
f 135 60 130
f 136 131 134
f 136 134 137
f 138 48 54
f 138 54 135
f 139 136 137
f 139 137 140
f 141 38 48
f 141 48 138
f 142 139 140
f 142 140 143
f 107 36 38
f 107 38 141
f 108 107 141
f 108 141 144
f 106 33 36
f 106 36 107
f 70 77 80
f 70 80 71
f 145 103 104
f 145 104 146
f 147 145 146
f 147 146 148
f 149 147 148
f 149 148 150
f 93 149 150
f 93 150 94
f 126 125 123
f 126 123 124
f 129 130 125
f 129 125 126
f 151 135 130
f 151 130 129
f 152 138 135
f 152 135 151
f 144 141 138
f 144 138 152
f 112 109 106
f 112 106 105
f 112 153 154
f 112 154 111
f 155 156 108
f 155 108 144
f 157 155 144
f 157 144 152
f 158 157 152
f 158 152 151
f 128 158 151
f 128 151 129
f 156 159 105
f 156 105 108
f 124 122 160
f 124 160 161
f 162 160 122
f 162 122 119
f 163 162 119
f 163 119 120
f 164 165 116
f 164 116 114
f 154 164 114
f 154 114 111
f 105 159 153
f 105 153 112
f 166 167 168
f 166 168 169
f 170 167 166
f 170 166 171
f 101 170 171
f 101 171 172
f 65 101 172
f 65 172 173
f 66 65 173
f 66 173 96
f 99 66 96
f 99 96 95
f 96 173 174
f 96 174 97
f 173 172 175
f 173 175 174
f 172 171 176
f 172 176 175
f 171 166 177
f 171 177 176
f 166 169 178
f 166 178 177
f 179 178 169
f 179 169 168
f 167 170 180
f 167 180 181
f 170 101 102
f 170 102 180
f 75 182 149
f 75 149 93
f 74 183 182
f 74 182 75
f 182 184 147
f 182 147 149
f 183 185 184
f 183 184 182
f 184 186 145
f 184 145 147
f 185 187 186
f 185 186 184
f 186 188 103
f 186 103 145
f 189 29 32
f 189 32 188
f 31 190 77
f 31 77 70
f 187 189 188
f 187 188 186
f 188 32 69
f 188 69 103
f 191 73 76
f 191 76 192
f 76 75 93
f 76 93 91
f 193 191 192
f 193 192 194
f 192 76 91
f 192 91 89
f 195 193 194
f 195 194 196
f 194 192 89
f 194 89 86
f 197 198 199
f 197 199 200
f 196 194 86
f 196 86 85
f 201 197 200
f 201 200 202
f 200 199 83
f 200 83 81
f 203 201 202
f 203 202 190
f 202 200 81
f 202 81 78
f 190 202 78
f 190 78 77
f 30 203 190
f 30 190 31
f 32 31 70
f 32 70 69
f 1 61 35
f 1 35 34
f 61 6 37
f 61 37 35
f 6 5 47
f 6 47 37
f 5 9 53
f 5 53 47
f 9 11 59
f 9 59 53
f 11 13 44
f 11 44 59
f 13 15 45
f 13 45 44
f 15 17 51
f 15 51 45
f 17 19 57
f 17 57 51
f 19 21 63
f 19 63 57
f 24 23 41
f 24 41 40
f 23 27 49
f 23 49 41
f 27 2 55
f 27 55 49
f 2 1 34
f 2 34 55
f 30 29 62
f 30 62 4
f 29 189 7
f 29 7 62
f 189 187 8
f 189 8 7
f 187 185 10
f 187 10 8
f 185 183 12
f 185 12 10
f 183 74 14
f 183 14 12
f 74 73 16
f 74 16 14
f 73 191 18
f 73 18 16
f 191 193 20
f 191 20 18
f 193 195 22
f 193 22 20
f 198 197 26
f 198 26 25
f 197 201 28
f 197 28 26
f 201 203 3
f 201 3 28
f 203 30 4
f 203 4 3
f 56 55 34
f 56 34 33
f 168 167 181
f 168 181 179
f 204 205 206
f 204 206 207
f 205 208 209
f 205 209 206
f 208 210 211
f 208 211 209
f 210 212 213
f 210 213 211
f 211 213 132
f 211 132 131
f 209 211 131
f 209 131 136
f 206 209 136
f 206 136 139
f 207 206 139
f 207 139 142
f 124 161 127
f 124 127 126
